# xmcd
#
# Track frame offsets:
#	150
#	15553
#	28265
#	46091
#	60663
#	74833
#	90256
#	106063
#	121477
#	137678
#	152084
#	164421
#	178861
#	191842
#	206879
#	222369
#	238215
#	252511
#	267260
#	281257
#	295090
#
# Disc length: 4124 seconds
#
# Revision: 1
# Processed by: cddbd v1.5.2PL0 Copyright (c) Steve Scherf et al.
# Submitted via: dBpowerAMP V4.0
#
DISCID=40101a15
DTITLE=Various Artist - Hott Country Volume 274 Can
DYEAR=2018
DGENRE=Country
TTITLE0=Florida Georgia Line - Talk You Out Of It
TTITLE1=Gord Bamford - Down
TTITLE2=Brad Paisley - Bucked Off
TTITLE3=Luke Combs - Beautiful Crazy
TTITLE4=Carly Pearce - Closer To You
TTITLE5=Dallas Smith - Rhinestone World
TTITLE6=Garth Brooks - Stronger Than Me
TTITLE7=Cole Swindell - Love You Too Late
TTITLE8=Rascal Flatts - Back To Life
TTITLE9=Russell Dickerson - Every Little Thing
TTITLE10=Hunter Brothers - Lost
TTITLE11=Justin Moore - The Ones That Didn't Make It Back Home
TTITLE12=Walker Hayes - 90's Country
TTITLE13=Sundance Head - Leave Her Wild
TTITLE14=Walker McGuire - Growin' Up
TTITLE15=Devin Dawson - Dark Horse
TTITLE16=Waterloo Revival - Wonder Woman
TTITLE17=David James - Cars, Girls, And The Radio
TTITLE18=Montgomery Gentry - Drink Along Song
TTITLE19=Runaway June - Sleigh Ride
TTITLE20=Mitchell Tenpenny - Have Yourself A Merry Little Christmas
EXTD=
EXTT0=
EXTT1=
EXTT2=
EXTT3=
EXTT4=
EXTT5=
EXTT6=
EXTT7=
EXTT8=
EXTT9=
EXTT10=
EXTT11=
EXTT12=
EXTT13=
EXTT14=
EXTT15=
EXTT16=
EXTT17=
EXTT18=
EXTT19=
EXTT20=
PLAYORDER=
